<?xml version="1.0" encoding="utf-8"?>
<!-- Generator: Adobe Illustrator 17.0.0, SVG Export Plug-In . SVG Version: 6.00 Build 0)  -->
<!DOCTYPE svg PUBLIC "-//W3C//DTD SVG 1.1//EN" "http://www.w3.org/Graphics/SVG/1.1/DTD/svg11.dtd">
<svg version="1.1" id="Layer_1" xmlns="http://www.w3.org/2000/svg" xmlns:xlink="http://www.w3.org/1999/xlink" x="0px" y="0px"
	 width="500px" height="500px" viewBox="0 0 500 500" enable-background="new 0 0 500 500" xml:space="preserve">
<g>
	<g display="none">
		<rect x="1" y="0.982" display="inline" fill="#FFFFFF" width="498" height="497.998"/>
	</g>
	<g>
		<g>
			<path fill="#FFFFFF" d="M91.885,142.367L91.885,142.367c1.963,0,3.569,1.604,3.569,3.568v36.577c0,1.965-1.605,3.57-3.569,3.57
				l0,0c-1.964,0-3.568-1.605-3.568-3.57v-36.577C88.317,143.971,89.921,142.367,91.885,142.367z"/>
		</g>
		<g>
			<path fill="#FFFFFF" d="M84.935,157.884L84.935,157.884c1.859,0,3.382,1.522,3.382,3.384v19.876c0-1.859-1.523-3.382-3.382-3.382
				l0,0c-1.859,0-3.381,1.523-3.381,3.382v-19.876C81.554,159.406,83.076,157.884,84.935,157.884z"/>
		</g>
		<g>
			<path fill="#FFFFFF" d="M76.758,159.591L76.758,159.591c2.639,0,4.796,2.157,4.796,4.796v29.362c0,2.639-2.157,4.794-4.796,4.794
				l0,0c-2.638,0-4.796-2.155-4.796-4.794v-29.362C71.963,161.747,74.121,159.591,76.758,159.591z"/>
		</g>
		<g>
			<path fill="#FFFFFF" d="M67.168,159.393L67.168,159.393c2.639,0,4.794,2.159,4.794,4.796v16.901c0-2.639-2.155-4.796-4.794-4.796
				l0,0c-2.638,0-4.796,2.157-4.796,4.796v-16.901C62.372,161.553,64.53,159.393,67.168,159.393z"/>
		</g>
		<g>
			<path fill="#FFFFFF" d="M54.285,159.393L54.285,159.393c4.449,0,8.087,3.64,8.087,8.09v16.774c0,4.448-3.639,8.086-8.087,8.086
				l0,0c-4.45,0-8.089-3.638-8.089-8.086v-16.774C46.196,163.034,49.835,159.393,54.285,159.393z"/>
		</g>
		<g>
			<g>
				<path fill="#2C81FE" d="M87.724,92.261c17.579,10.15,21.89,35.593,9.631,56.83c-12.26,21.237-36.451,30.223-54.03,20.072
					l-7.72-4.455l0.659-1.142c-11.441-12.163-12.971-33.209-2.567-51.23C44.1,94.318,63.091,85.121,79.346,88.946l0.659-1.14
					L87.724,92.261z"/>
			</g>
			<g>
				<path fill="#12006C" d="M92.344,156.33c-6.305,7.67-14.339,12.997-22.696,15.462l-28.6-16.511l12.37-21.425L92.344,156.33z"/>
			</g>
			<g>
				<g>
					
						<ellipse transform="matrix(-0.866 -0.5 0.5 -0.866 44.7301 264.4988)" fill="#59B2FF" cx="57.802" cy="126.257" rx="36.751" ry="44.399"/>
				</g>
				<g>
					
						<ellipse transform="matrix(-0.866 -0.5 0.5 -0.866 44.7246 264.5047)" fill="#FF75CA" cx="57.8" cy="126.26" rx="27.74" ry="33.512"/>
					<path fill="#12006C" d="M53.024,159.047c-4.435,0-8.569-1.086-12.285-3.235c-6.579-3.797-10.977-10.452-12.379-18.74
						c-1.397-8.243,0.338-17.118,4.886-24.998c6.527-11.304,18.044-18.611,29.339-18.611c4.434,0,8.566,1.088,12.283,3.232
						c13.541,7.82,16.903,27.441,7.494,43.739C75.835,151.742,64.32,159.047,53.024,159.047z M62.586,94.697
						c-10.864,0-21.96,7.063-28.272,17.997c-4.405,7.628-6.088,16.213-4.739,24.172c1.343,7.919,5.525,14.27,11.781,17.879
						c3.527,2.038,7.454,3.07,11.668,3.07c10.862,0,21.96-7.066,28.27-17.997c9.07-15.71,5.911-34.574-7.041-42.052
						C70.726,95.73,66.799,94.697,62.586,94.697z"/>
				</g>
				<g>
					<path fill="#FFFFFF" d="M28.675,110.055c-0.105,0-0.211-0.027-0.308-0.084c-0.293-0.17-0.394-0.547-0.224-0.84
						c0.538-0.932,1.1-1.836,1.684-2.717c0.189-0.284,0.57-0.361,0.854-0.172s0.361,0.572,0.172,0.854
						c-0.57,0.859-1.117,1.743-1.642,2.65C29.095,109.944,28.889,110.055,28.675,110.055z M32.155,104.815
						c-0.131,0-0.262-0.041-0.373-0.124c-0.272-0.205-0.324-0.593-0.119-0.866C43.953,87.622,63.62,82.03,78.429,90.531
						c0.294,0.17,0.396,0.546,0.228,0.842c-0.172,0.296-0.549,0.396-0.843,0.228c-14.263-8.19-33.259-2.735-45.168,12.97
						C32.524,104.732,32.34,104.815,32.155,104.815z"/>
				</g>
				<g>
					<path fill="#2C81FE" d="M51.936,165.846c-5.174,0-10.221-1.247-14.756-3.867c-0.295-0.17-0.397-0.547-0.226-0.843
						c0.169-0.296,0.547-0.393,0.842-0.224c14.316,8.266,34.013,2.3,45.814-13.875c0.201-0.277,0.586-0.337,0.861-0.135
						c0.276,0.201,0.337,0.588,0.137,0.862C76.147,159.358,63.72,165.846,51.936,165.846z M85.873,145.429
						c-0.115,0-0.23-0.031-0.332-0.097c-0.286-0.184-0.372-0.565-0.189-0.851c0.361-0.564,0.709-1.135,1.047-1.717
						c0.172-0.296,0.549-0.396,0.843-0.223c0.295,0.17,0.395,0.549,0.224,0.842c-0.349,0.599-0.707,1.185-1.074,1.763
						C86.274,145.326,86.074,145.429,85.873,145.429z"/>
				</g>
				<g>
					<g>
						<path fill="#E33BA3" d="M53.793,153.932c-3.424,0-6.727-0.789-9.705-2.358c-5.323-2.802-9.129-7.836-10.717-14.172
							c-0.082-0.328,0.119-0.663,0.449-0.747c0.331-0.084,0.666,0.119,0.749,0.449c1.501,5.99,5.086,10.741,10.094,13.379
							c5.106,2.69,11.232,2.938,17.249,0.703c11-4.085,19.169-15.463,19.865-27.665c0.02-0.338,0.323-0.585,0.65-0.581
							c0.341,0.02,0.601,0.312,0.582,0.653c-0.724,12.675-9.224,24.499-20.668,28.749C59.482,153.402,56.597,153.932,53.793,153.932
							z M33.216,129.574c-0.011,0-0.023-0.001-0.035-0.001c-0.341-0.019-0.6-0.311-0.578-0.65
							c0.72-12.675,9.22-24.499,20.667-28.753c6.35-2.358,12.833-2.086,18.253,0.769c5.323,2.803,9.127,7.833,10.716,14.171
							c0.084,0.328-0.118,0.665-0.449,0.747c-0.333,0.082-0.665-0.119-0.749-0.45c-1.501-5.989-5.085-10.741-10.094-13.379
							c-5.105-2.689-11.231-2.936-17.248-0.7c-11.001,4.085-19.171,15.462-19.867,27.664
							C33.813,129.322,33.541,129.574,33.216,129.574z"/>
					</g>
					<g>
						<path fill="#E33BA3" d="M81.738,119.999c-1.123,0-2.011-0.778-2.208-1.941c-0.239-1.411,0.624-2.907,1.969-3.407
							c1.382-0.511,2.835,0.337,3.081,1.778c0.239,1.413-0.626,2.911-1.969,3.409C82.323,119.945,82.028,119.999,81.738,119.999z
							 M82.37,115.722c-0.143,0-0.293,0.032-0.443,0.085c-0.778,0.291-1.319,1.226-1.18,2.047c0.12,0.711,0.753,1.081,1.434,0.828
							c0.78-0.29,1.32-1.227,1.181-2.046C83.269,116.08,82.88,115.722,82.37,115.722z"/>
					</g>
					<g>
						<path fill="#E33BA3" d="M33.239,138.02c-1.126,0-2.012-0.778-2.209-1.939c-0.238-1.412,0.626-2.909,1.969-3.408
							c1.401-0.519,2.832,0.316,3.081,1.777c0.239,1.412-0.626,2.912-1.969,3.411C33.824,137.967,33.529,138.02,33.239,138.02z
							 M33.87,133.743c-0.143,0-0.292,0.032-0.442,0.086c-0.78,0.289-1.32,1.224-1.182,2.046c0.12,0.711,0.755,1.081,1.436,0.828
							c0.78-0.291,1.32-1.227,1.181-2.046C34.77,134.104,34.38,133.743,33.87,133.743z"/>
					</g>
				</g>
				<g>
					<g>
						<path fill="#FFFFFF" d="M57.319,104.336l10.722,6.189c2.127,1.228,3.647,2.246,4.567,3.059
							c0.922,0.824,1.594,1.804,2.031,2.951c0.431,1.154,0.6,2.449,0.501,3.889c-0.1,1.44-0.557,2.867-1.361,4.262
							c-0.872,1.507-2.015,2.708-3.415,3.577c-1.405,0.877-2.867,1.291-4.386,1.258c1.292,1.52,1.976,3.22,2.054,5.116
							c0.073,1.893-0.431,3.774-1.514,5.65c-0.854,1.477-1.962,2.75-3.336,3.816c-1.373,1.068-2.792,1.736-4.261,2.004
							c-1.458,0.265-2.966,0.077-4.52-0.559c-0.963-0.407-3.185-1.588-6.654-3.55l-9.131-5.273L57.319,104.336L57.319,104.336z
							 M59.64,112.855l-4.309,7.464l3.546,2.046c2.103,1.213,3.435,1.931,3.989,2.153c0.997,0.404,1.951,0.443,2.851,0.105
							c0.9-0.334,1.647-1.019,2.247-2.058c0.578-1.003,0.813-1.943,0.719-2.834c-0.095-0.886-0.557-1.658-1.381-2.305
							c-0.495-0.385-2.013-1.311-4.554-2.778L59.64,112.855L59.64,112.855z M52.223,125.702l-5.016,8.685l5.019,2.897
							c1.947,1.123,3.23,1.774,3.827,1.949c0.909,0.284,1.812,0.232,2.715-0.162c0.905-0.401,1.688-1.165,2.355-2.319
							c0.565-0.981,0.846-1.916,0.846-2.82c0.004-0.901-0.278-1.728-0.835-2.461c-0.558-0.734-2.07-1.822-4.536-3.244
							L52.223,125.702z"/>
					</g>
					<g>
						
							<rect x="61.182" y="104.041" transform="matrix(-0.8663 -0.4995 0.4995 -0.8663 63.429 231.91)" fill="#FFFFFF" width="3.135" height="6.851"/>
					</g>
					<g>
						
							<rect x="66.604" y="107.177" transform="matrix(-0.8659 -0.5002 0.5002 -0.8659 71.8793 240.4759)" fill="#FFFFFF" width="3.137" height="6.853"/>
					</g>
					<g>
						
							<rect x="42.485" y="136.425" transform="matrix(-0.8659 -0.5002 0.5002 -0.8659 12.2429 282.9848)" fill="#FFFFFF" width="3.134" height="6.853"/>
					</g>
					<g>
						
							<rect x="47.912" y="139.561" transform="matrix(-0.8662 -0.4997 0.4997 -0.8662 20.8875 291.5663)" fill="#FFFFFF" width="3.134" height="6.852"/>
					</g>
				</g>
			</g>
		</g>
		<g>
			<path fill="#FFFFFF" d="M59.187,173.97c-5.743,0-11.251-1.431-16.171-4.271c-0.295-0.17-0.396-0.549-0.226-0.843
				c0.172-0.295,0.549-0.395,0.843-0.224c8.339,4.816,18.457,5.417,28.485,1.686c10.07-3.74,18.844-11.389,24.702-21.535
				c0.17-0.296,0.547-0.395,0.842-0.226c0.295,0.17,0.396,0.549,0.226,0.843c-6.002,10.394-15.001,18.234-25.339,22.076
				C68.064,173.141,63.558,173.97,59.187,173.97z"/>
		</g>
		<g>
			<path fill="#FFFFFF" d="M76.758,202.523L76.758,202.523c2.639,0,4.796,2.158,4.796,4.796v1.047c0,2.638-2.157,4.796-4.796,4.796
				l0,0c-2.638,0-4.796-2.158-4.796-4.796v-1.047C71.963,204.681,74.121,202.523,76.758,202.523z"/>
		</g>
	</g>
	<g>
		<g>
			<path fill="#FFFFFF" d="M464.551,197.786h0.001c1.962,0,3.569,1.603,3.569,3.566v36.578c0,1.965-1.607,3.568-3.569,3.568h-0.001
				c-1.962,0-3.568-1.603-3.568-3.568v-36.578C460.984,199.389,462.589,197.786,464.551,197.786z"/>
		</g>
		<g>
			<path fill="#FFFFFF" d="M457.601,213.303L457.601,213.303c1.861,0,3.382,1.519,3.382,3.381v19.878
				c0-1.859-1.522-3.381-3.382-3.381l0,0c-1.861,0-3.381,1.522-3.381,3.381v-19.878C454.22,214.822,455.741,213.303,457.601,213.303
				z"/>
		</g>
		<g>
			<path fill="#FFFFFF" d="M449.426,215.01L449.426,215.01c2.636,0,4.794,2.157,4.794,4.794v29.362c0,2.639-2.158,4.796-4.794,4.796
				l0,0c-2.639,0-4.797-2.157-4.797-4.796v-29.362C444.629,217.167,446.787,215.01,449.426,215.01z"/>
		</g>
		<g>
			<path fill="#FFFFFF" d="M439.836,214.813L439.836,214.813c2.635,0,4.793,2.157,4.793,4.794v16.902
				c0-2.64-2.158-4.796-4.793-4.796l0,0c-2.639,0-4.796,2.155-4.796,4.796v-16.902C435.04,216.969,437.197,214.813,439.836,214.813z
				"/>
		</g>
		<g>
			<path fill="#FFFFFF" d="M426.95,199.917L426.95,199.917c4.45,0,8.09,3.64,8.09,8.088v31.669c0,4.448-3.64,8.089-8.09,8.089l0,0
				c-4.448,0-8.086-3.64-8.086-8.089v-31.669C418.864,203.558,422.501,199.917,426.95,199.917z"/>
		</g>
		<g>
			<path fill="#FFFFFF" d="M449.426,257.941L449.426,257.941c2.636,0,4.794,2.159,4.794,4.794v1.046c0,2.64-2.158,4.796-4.794,4.796
				l0,0c-2.639,0-4.797-2.155-4.797-4.796v-1.046C444.629,260.1,446.787,257.941,449.426,257.941z"/>
		</g>
		<g>
			<g>
				<path fill="#2C81FE" d="M468.448,219.388c-10.302,11.255-32.805,7.423-50.265-8.556c-17.459-15.98-23.26-38.059-12.958-49.314
					l4.525-4.943l0.936,0.859c11.541-5.728,29.987-0.92,44.802,12.643c14.813,13.558,21.232,31.509,16.545,43.512l0.938,0.859
					L468.448,219.388z"/>
			</g>
			<g>
				<path fill="#12006C" d="M412.302,204.716c-6.151-7.286-10.116-15.292-11.562-22.737l16.76-18.31l17.614,16.124L412.302,204.716z
					"/>
			</g>
			<g>
				<g>
					<path fill="#59B2FF" d="M472.972,214.448c-10.301,11.252-32.805,7.423-50.263-8.562c-17.46-15.979-23.261-38.058-12.959-49.311
						c10.302-11.256,32.804-7.423,50.263,8.559C477.475,181.114,483.273,203.192,472.972,214.448z"/>
				</g>
				<g>
					
						<ellipse transform="matrix(0.6752 -0.7376 0.7376 0.6752 6.5107 385.7935)" fill="#FF75CA" cx="441.346" cy="185.504" rx="20.85" ry="32.346"/>
					<path fill="#12006C" d="M452.784,212.841c-8.364,0-18.056-4.296-25.916-11.495c-6.461-5.913-11.054-13.102-12.929-20.247
						c-1.904-7.24-0.8-13.576,3.107-17.846c3.04-3.321,7.497-5.076,12.893-5.076c8.366,0,18.055,4.299,25.92,11.497
						c6.458,5.913,11.05,13.103,12.928,20.246c1.901,7.239,0.797,13.578-3.109,17.848
						C462.638,211.088,458.181,212.841,452.784,212.841z M429.938,159.41c-5.04,0-9.183,1.618-11.982,4.677
						c-3.616,3.947-4.617,9.879-2.827,16.701c1.819,6.916,6.283,13.894,12.57,19.649c7.643,6.996,17.021,11.174,25.085,11.174
						c5.04,0,9.184-1.616,11.983-4.677c3.615-3.947,4.617-9.878,2.826-16.699c-1.819-6.916-6.282-13.895-12.57-19.651
						C447.382,163.588,438.002,159.41,429.938,159.41z"/>
				</g>
				<g>
					<path fill="#FFFFFF" d="M470.291,212.607c-0.15,0-0.297-0.055-0.418-0.161c-0.25-0.23-0.269-0.62-0.041-0.871
						c8.262-9.078,5.069-25.899-7.59-39.993c-0.227-0.253-0.207-0.643,0.047-0.872c0.253-0.226,0.642-0.208,0.869,0.047
						c13.093,14.574,16.283,32.09,7.587,41.647C470.624,212.538,470.457,212.607,470.291,212.607z M460.628,169.589
						c-0.158,0-0.318-0.061-0.438-0.183c-0.703-0.708-1.427-1.404-2.177-2.092c-0.25-0.228-0.267-0.62-0.038-0.87
						c0.231-0.25,0.622-0.267,0.873-0.038c0.762,0.699,1.501,1.411,2.217,2.131c0.24,0.243,0.239,0.632-0.003,0.873
						C460.942,169.528,460.785,169.589,460.628,169.589z"/>
				</g>
				<g>
					<path fill="#2C81FE" d="M424.291,204.774c-0.149,0-0.299-0.051-0.419-0.161c-0.489-0.451-0.967-0.907-1.438-1.369
						c-0.243-0.238-0.246-0.627-0.008-0.871c0.238-0.243,0.627-0.249,0.873-0.008c0.458,0.451,0.93,0.897,1.409,1.341
						c0.25,0.231,0.268,0.62,0.037,0.87C424.62,204.708,424.458,204.774,424.291,204.774z M420.761,201.256
						c-0.165,0-0.331-0.068-0.453-0.197c-13.518-14.617-17.101-32.866-8.331-42.444c0.23-0.251,0.619-0.272,0.87-0.039
						c0.251,0.23,0.268,0.619,0.038,0.869c-8.332,9.105-4.753,26.634,8.328,40.778c0.231,0.25,0.215,0.639-0.035,0.869
						C421.061,201.204,420.911,201.256,420.761,201.256z"/>
				</g>
				<g>
					<g>
						<path fill="#E33BA3" d="M450.97,208.595c-0.678,0-1.376-0.035-2.088-0.103c-0.339-0.032-0.588-0.331-0.554-0.673
							c0.031-0.339,0.341-0.591,0.672-0.553c5.213,0.495,9.562-0.959,12.233-4.103c2.799-3.292,3.542-8.142,2.093-13.658
							c-2.646-10.063-11.891-19.941-22.483-24.015c-0.319-0.123-0.477-0.48-0.355-0.799c0.123-0.318,0.481-0.473,0.797-0.353
							c10.939,4.211,20.494,14.429,23.231,24.856c1.554,5.916,0.722,11.159-2.344,14.768
							C459.603,206.986,455.677,208.595,450.97,208.595z M441.657,206.721c-0.074,0-0.149-0.013-0.222-0.042
							c-10.939-4.211-20.494-14.433-23.232-24.853c-1.557-5.917-0.722-11.16,2.346-14.768c2.939-3.459,7.659-5.067,13.289-4.531
							c0.341,0.034,0.589,0.332,0.557,0.673c-0.033,0.338-0.338,0.592-0.673,0.553c-5.217-0.493-9.565,0.959-12.235,4.103
							c-2.799,3.293-3.539,8.144-2.092,13.659c2.645,10.062,11.89,19.938,22.48,24.015c0.32,0.123,0.478,0.48,0.357,0.797
							C442.138,206.572,441.905,206.721,441.657,206.721z"/>
					</g>
					<g>
						<path fill="#E33BA3" d="M447.938,210.034c-0.13,0-0.265-0.011-0.405-0.035c-1.219-0.205-2.42-1.307-2.735-2.503
							c-0.164-0.619-0.073-1.196,0.257-1.622c0.378-0.492,0.999-0.724,1.768-0.586c1.22,0.205,2.419,1.305,2.734,2.501
							c0.164,0.622,0.073,1.199-0.255,1.624C448.991,209.816,448.506,210.034,447.938,210.034z M446.418,206.485
							c-0.126,0-0.296,0.024-0.388,0.143c-0.089,0.115-0.1,0.316-0.038,0.555c0.189,0.727,1.007,1.474,1.747,1.603
							c0.208,0.033,0.449,0.049,0.584-0.124c0.089-0.115,0.104-0.316,0.041-0.557c-0.191-0.728-1.009-1.476-1.75-1.603
							C446.546,206.491,446.48,206.485,446.418,206.485z"/>
					</g>
					<g>
						<path fill="#E33BA3" d="M436.304,165.77c-0.128,0-0.261-0.012-0.403-0.037c-1.222-0.208-2.42-1.309-2.738-2.504
							c-0.161-0.62-0.069-1.197,0.259-1.622c0.378-0.493,1.001-0.723,1.766-0.588c1.218,0.205,2.419,1.308,2.735,2.501
							c0.164,0.62,0.072,1.199-0.257,1.626C437.358,165.547,436.874,165.77,436.304,165.77z M434.785,162.218
							c-0.126,0-0.296,0.024-0.386,0.141c-0.086,0.116-0.104,0.319-0.041,0.559c0.191,0.724,1.008,1.473,1.751,1.6
							c0.205,0.035,0.445,0.049,0.582-0.124c0.088-0.115,0.103-0.316,0.039-0.557c-0.191-0.727-1.008-1.476-1.749-1.603
							C434.913,162.223,434.847,162.218,434.785,162.218z"/>
					</g>
				</g>
				<g>
					<g>
						<path fill="#FFFFFF" d="M460.478,191.412l-6.282,6.867c-1.247,1.361-2.261,2.293-3.042,2.802
							c-0.797,0.505-1.708,0.765-2.74,0.789c-1.042,0.018-2.18-0.219-3.427-0.714c-1.245-0.493-2.448-1.271-3.593-2.32
							c-1.242-1.135-2.19-2.401-2.831-3.781c-0.646-1.384-0.882-2.681-0.726-3.894c-1.432,0.605-2.97,0.665-4.627,0.187
							c-1.653-0.487-3.247-1.432-4.79-2.843c-1.216-1.113-2.227-2.372-3.04-3.784c-0.816-1.415-1.281-2.75-1.389-4.012
							c-0.108-1.251,0.178-2.411,0.863-3.482c0.434-0.658,1.647-2.112,3.647-4.344l5.351-5.844L460.478,191.412L460.478,191.412z
							 M452.873,190.838l-6.137-5.619l-2.077,2.27c-1.232,1.349-1.972,2.216-2.208,2.6c-0.437,0.686-0.549,1.445-0.33,2.265
							c0.215,0.824,0.749,1.62,1.604,2.403c0.824,0.757,1.621,1.216,2.405,1.395c0.781,0.181,1.489,0.028,2.122-0.451
							c0.378-0.286,1.309-1.246,2.8-2.873L452.873,190.838L452.873,190.838z M442.309,181.169l-7.139-6.536l-2.942,3.213
							c-1.142,1.247-1.814,2.092-2.015,2.527c-0.322,0.65-0.353,1.393-0.085,2.232c0.273,0.845,0.873,1.696,1.822,2.565
							c0.805,0.738,1.597,1.231,2.382,1.491c0.785,0.262,1.528,0.274,2.215,0.036c0.685-0.24,1.754-1.147,3.198-2.726
							L442.309,181.169z"/>
					</g>
					<g>
						
							<rect x="456.109" y="191.573" transform="matrix(0.6758 -0.7371 0.7371 0.6758 4.6113 400.2449)" fill="#FFFFFF" width="2.358" height="6.615"/>
					</g>
					<g>
						
							<rect x="452.954" y="195.07" transform="matrix(0.6751 -0.7377 0.7377 0.6751 1.1965 399.4692)" fill="#FFFFFF" width="2.356" height="6.613"/>
					</g>
					<g>
						
							<rect x="429.475" y="167.216" transform="matrix(0.6764 -0.7366 0.7366 0.6764 13.7705 372.3908)" fill="#FFFFFF" width="2.356" height="6.618"/>
					</g>
					<g>
						
							<rect x="426.31" y="170.671" transform="matrix(0.6749 -0.7379 0.7379 0.6749 10.5956 372.0049)" fill="#FFFFFF" width="2.357" height="6.612"/>
					</g>
				</g>
			</g>
		</g>
		<g>
			<path fill="#FFFFFF" d="M452.019,226.47c-1.957,0-4.004-0.18-6.123-0.539c-9.61-1.638-19.599-6.838-28.128-14.645
				c-0.253-0.228-0.268-0.62-0.039-0.872c0.23-0.25,0.62-0.269,0.871-0.039c8.358,7.651,18.124,12.744,27.503,14.34
				c9.278,1.58,17.053-0.459,21.89-5.743c0.23-0.25,0.619-0.269,0.87-0.038c0.253,0.23,0.269,0.62,0.041,0.87
				C464.894,224.184,459.026,226.47,452.019,226.47z"/>
		</g>
	</g>
	<g>
		<g>
			<path fill="#FFFFFF" d="M114.738,300.686c0,0-22.332,13.094-33.94,20.413c-11.609,7.32-13.913,36.627-12.416,50.399
				c1.495,13.77,11.345,20.146,31.239,27.111c19.894,6.963,32.831-14.171,44.974-30.464L114.738,300.686z"/>
		</g>
		<g>
			<path fill="#FFFFFF" d="M166.818,230.997c0,0-12.981,2.695-20.884,15.253c-7.905,12.563-51.091,71.583-51.091,71.583
				l40.871,46.348c0,0,36.652-39.175,36.533-49.836C172.126,303.687,166.818,230.997,166.818,230.997z"/>
		</g>
		<g>
			<path fill="#FFFFFF" d="M409.818,338.467c-6.786-10.189-20.519-45.395-36.208-69.489c-8.912-13.687-17.171-20.232-24.654-23.718
				l-10.874,5.173l-11.116,25.556l-13.217,28.63c0,0,1.457,22.311,1.478,24.119c0.02,1.812,26.561,18.61,26.561,18.61
				L409.818,338.467z"/>
		</g>
		<g>
			<path fill="#FFFFFF" d="M368.655,316.026c0,0,24.672,12.566,37.511,19.61c12.839,7.044,16.043,36.289,14.733,50.092
				c-1.305,13.802-11.905,20.41-33.444,27.842c-21.542,7.431-36.155-13.395-49.784-29.4L368.655,316.026z"/>
		</g>
		<g>
			<path fill="#59B2FF" d="M224.118,182.106c0,0-1.015,5.281-1.884,9.832c-0.87,4.546-0.576,18.495-0.576,18.495
				c-0.659,3.794-1.259,13.114-6.759,12.984c-9.346-0.223,6.151,32.249,18.705,35.621c14.516,3.896,44.687-13.174,61.208-23.244
				c2.08-1.265-0.039-7.013,1.693-7.838c0,0-8.025-2.951-8.87-10.343c-0.846-7.394,1.688-34.262,1.688-34.262L224.118,182.106z"/>
		</g>
		<g>
			<path fill="#2C81FE" d="M224.118,182.106c0,0-1.013,5.281-1.884,9.832c-0.87,4.546-0.576,18.495-0.576,18.495
				c-0.282,1.626-0.554,4.267-1.205,6.743c5.992,5.108,12.585,10.452,16.052,12.363c4.371,2.408,9.831,3.489,15.201,3.416
				c5.373-0.049,10.804-1.251,15.12-3.759c4.42-2.562,13.912-10.962,20.646-17.126c0.142-10.574,1.851-28.716,1.851-28.716
				L224.118,182.106z"/>
		</g>
		<g>
			<path fill="#FFFFFF" d="M296.506,227.958l52.45,17.302c0,0-42.382,59.195-7.478,124.83l-14.148,101.2c0,0,5.84,6.893,2.29,14.982
				c-24.852,8.262-51.428,12.747-79.055,12.747c-39.582,0-77.007-9.197-110.286-25.546l-3.553-98.327
				c-7.637-77.898,1.158-69.793,30.091-144.148l48.082-7.579C217.271,250.218,259.586,252.953,296.506,227.958z"/>
		</g>
		<g>
			<path fill="#2C81FE" d="M397.243,331.46c-0.097,0-0.196-0.024-0.288-0.073c-12.721-6.731-28.424-14.732-28.581-14.812
				c-0.304-0.154-0.426-0.526-0.27-0.828c0.155-0.305,0.527-0.423,0.828-0.27c0.119,0.061,8.896,4.531,18.633,9.596l3.619-0.67
				c0.33-0.064,0.654,0.157,0.719,0.492c0.061,0.335-0.159,0.655-0.495,0.717l-2.069,0.386c2.747,1.432,5.536,2.893,8.193,4.301
				c0.301,0.158,0.416,0.531,0.257,0.83C397.68,331.34,397.465,331.46,397.243,331.46z M245.315,256.627
				c-7.132,0-13.802-1.035-19.45-3.257c-12.44-4.892-19.094-14.828-19.245-28.739c-0.005-0.341,0.267-0.619,0.608-0.623
				c0.003,0,0.005,0,0.008,0c0.335,0,0.611,0.272,0.615,0.609c0.146,13.368,6.531,22.913,18.465,27.604
				c22.499,8.851,61.514-1.462,80.29-21.21c0.234-0.247,0.624-0.254,0.872-0.022c0.246,0.232,0.257,0.624,0.022,0.87
				C293.135,246.968,267.08,256.627,245.315,256.627z"/>
		</g>
		<g>
			<path fill="#59B2FF" d="M353.634,288.219l-16.911-35.332c0,0-4.838-5.162-8.91-0.12c-4.07,5.044-0.23,18.038,2.167,28.222
				c2.395,10.185,5.123,20.802,5.123,20.802l-33.992-47.094c0,0-3.971-5.493-8.7-0.876c-4.728,4.613,1.065,17.259,9.714,33.022
				c8.65,15.763,20.061,35.515,20.061,35.515s0.065,7.455,3.859,16.432c0,0,0.392,15.421-7.286,18.659c0,0-8.232,2.048-15.202,0.497
				c-6.971-1.551-24.483-3.419-31.215-3.126c-6.733,0.296-8.536,4.116-9.246,8.687c-0.709,4.57,0.87,9.767,15.133,12.647
				c14.266,2.882,29.57,1.839,42.214,5.393c12.641,3.55,27.9,17.61,44.767,10.467c0,0,11.805,6.385,24.776,0.589
				c12.971-5.792,9.001-30.301,9.001-30.301s3.963-14.384,5.424-19.725c1.462-5.338-4.465-10.921-10.837-7.482
				c-6.371,3.442-9.482,6.846-9.482,6.846s-11.082-48.437-14.244-59.047C366.688,272.283,353.913,276.118,353.634,288.219z"/>
		</g>
		<g>
			<path fill="#2C81FE" d="M292.458,356.205c-7.44-0.905-15.895-1.572-20.115-1.386c-6.733,0.292-8.536,4.116-9.246,8.687
				c-0.709,4.57,0.87,9.767,15.136,12.647c3.347,0.678,6.754,1.136,10.171,1.492C290.633,370.837,292.025,363.649,292.458,356.205z"
				/>
		</g>
		<g>
			<path fill="#2C81FE" d="M365.212,392.631c-0.313,0-0.581-0.236-0.613-0.553c-1.536-14.857-5.594-25.541-10.531-33.216
				c-0.636-0.897-1.142-1.653-1.504-2.208c-11.385-15.83-26.339-17.234-26.565-17.251c-0.339-0.026-0.592-0.322-0.566-0.662
				c0.026-0.339,0.33-0.58,0.661-0.566c0.224,0.015,14.982,1.37,26.595,16.567c0.116,0.049,0.216,0.135,0.285,0.251
				c0.011,0.016,0.196,0.326,0.539,0.854c0.562,0.784,1.121,1.601,1.667,2.455c2.8,3.936,8.066,10.523,14.624,14.906
				c0.284,0.187,0.359,0.572,0.17,0.854c-0.189,0.286-0.574,0.359-0.854,0.172c-3.997-2.672-7.52-6.136-10.32-9.348
				c3.301,7.025,5.869,15.884,7.025,27.062c0.035,0.341-0.211,0.643-0.551,0.678C365.255,392.627,365.232,392.631,365.212,392.631z
				 M392.85,365.534c-1.635,0-3.599-0.358-5.917-1.328c-0.314-0.13-0.461-0.492-0.33-0.807c0.13-0.312,0.492-0.462,0.807-0.331
				c7.756,3.246,10.948-0.949,11.079-1.13c0.203-0.274,0.589-0.335,0.862-0.135c0.273,0.199,0.335,0.581,0.138,0.855
				C399.378,362.817,397.355,365.534,392.85,365.534z M377.887,350.88c-0.205,0-0.408-0.105-0.524-0.293
				c-0.622-1.001-1.247-1.981-1.874-2.938c-0.007-0.008-0.015-0.02-0.023-0.031c-0.007-0.011-0.014-0.022-0.02-0.035
				c-5.874-8.925-12.01-15.771-18.357-20.491c-0.112-0.041-0.209-0.114-0.281-0.208c-4.832-3.542-9.783-5.854-14.833-6.92
				c-11.543-2.432-19.382,2.812-19.459,2.863c-0.282,0.195-0.666,0.119-0.857-0.159c-0.193-0.282-0.12-0.665,0.159-0.857
				c0.303-0.208,6.842-4.571,16.947-3.59l-4.259-16.274c-0.086-0.33,0.111-0.666,0.441-0.754c0.328-0.086,0.666,0.112,0.753,0.442
				l4.381,16.745c0.701,0.097,1.416,0.223,2.148,0.377c4.88,1.028,9.66,3.18,14.325,6.431l-3.534-36.909
				c-0.032-0.339,0.216-0.642,0.555-0.673c0.338-0.045,0.641,0.215,0.673,0.557l3.636,37.986
				c6.328,4.724,12.436,11.496,18.274,20.278l7.597-5.002c0.284-0.187,0.668-0.109,0.854,0.176c0.188,0.285,0.108,0.668-0.176,0.855
				l-7.6,5c0.53,0.809,1.057,1.639,1.58,2.482c0.177,0.291,0.089,0.672-0.201,0.85C378.111,350.85,377.998,350.88,377.887,350.88z"
				/>
		</g>
		<g>
			<path fill="#59B2FF" d="M84.603,281.295l14.968-33.17c0,0,4.385-4.896,8.271-0.296c3.886,4.601,0.592,16.749-1.42,26.258
				s-4.323,19.426-4.323,19.426l30.585-44.45c0,0,3.574-5.188,8.062-0.999c4.489,4.189-0.628,16.055-8.332,30.876
				c-7.705,14.822-17.891,33.407-17.891,33.407s0.097,6.925-3.24,15.34c0,0-0.041,14.332,7.158,17.18c0,0,7.69,1.728,14.132,0.142
				c6.442-1.585,22.665-3.689,28.926-3.557c6.261,0.134,8.015,3.643,8.767,7.877c0.755,4.229-0.604,9.09-13.79,12.063
				c-13.189,2.977-27.427,2.328-39.094,5.89c-11.668,3.563-25.546,16.94-41.362,10.66c0,0-10.831,6.175-22.999,1.068
				c-12.17-5.111-8.994-27.958-8.994-27.958s-3.985-13.278-5.453-18.205c-1.469-4.93,3.92-10.24,9.909-7.177
				c5.992,3.063,8.951,6.158,8.951,6.158s9.281-45.218,11.996-55.141C72.144,266.768,84.089,270.064,84.603,281.295z"/>
		</g>
		<g>
			<path fill="#2C81FE" d="M139.06,343.745c7.562-1.246,17.768-2.389,22.438-2.292c6.261,0.134,8.015,3.643,8.767,7.875
				c0.757,4.231-0.603,9.091-13.79,12.064c-5.442,1.23-11.06,1.84-16.606,2.382c-0.723-4.294-1.107-8.704-1.107-13.202
				C138.762,348.273,138.868,345.996,139.06,343.745z"/>
		</g>
		<g>
			<path fill="#2C81FE" d="M76.019,378.56c-0.016,0-0.032,0-0.05-0.003c-0.339-0.026-0.593-0.324-0.566-0.664
				c0.83-10.263,2.981-18.465,5.84-25.015c-2.504,2.978-5.635,6.169-9.2,8.669c-0.278,0.195-0.663,0.128-0.859-0.15
				c-0.195-0.278-0.127-0.664,0.151-0.858c5.992-4.205,10.739-10.424,13.257-14.139c0.491-0.804,0.992-1.578,1.501-2.319
				c0.307-0.497,0.469-0.785,0.478-0.801c0.065-0.113,0.159-0.2,0.27-0.251c10.478-14.364,24.169-15.935,24.38-15.955
				c0.332-0.039,0.639,0.214,0.673,0.555c0.032,0.337-0.215,0.639-0.553,0.67c-0.208,0.022-14.052,1.638-24.284,16.568
				c-0.323,0.52-0.774,1.228-1.342,2.07c-4.423,7.225-7.967,17.226-9.083,31.054C76.607,378.316,76.337,378.56,76.019,378.56z
				 M49.563,353.974c-4.047,0-5.924-2.411-6.029-2.553c-0.205-0.272-0.151-0.658,0.122-0.862c0.27-0.201,0.655-0.15,0.862,0.122
				c0.128,0.166,3.165,3.961,10.26,0.803c0.311-0.139,0.676,0.004,0.813,0.314c0.139,0.312-0.001,0.674-0.312,0.814
				C53.031,353.612,51.134,353.974,49.563,353.974z M63.372,340.048c-0.107,0-0.215-0.027-0.314-0.086
				c-0.293-0.172-0.39-0.549-0.218-0.845c0.462-0.782,0.924-1.547,1.391-2.301l-7.125-4.465c-0.289-0.181-0.376-0.559-0.195-0.849
				c0.18-0.291,0.561-0.377,0.85-0.195l7.124,4.461c5.231-8.256,10.751-14.663,16.52-19.176l2.582-35.342
				c0.026-0.342,0.322-0.595,0.661-0.57c0.338,0.024,0.595,0.319,0.57,0.659l-2.505,34.266c4.244-3.093,8.621-5.174,13.11-6.225
				c0.668-0.155,1.322-0.288,1.962-0.392l3.713-15.618c0.078-0.33,0.409-0.534,0.742-0.455c0.331,0.078,0.535,0.411,0.458,0.74
				l-3.6,15.145c9.344-1.108,15.495,2.807,15.782,2.995c0.284,0.187,0.365,0.566,0.18,0.851s-0.569,0.365-0.853,0.181
				c-0.076-0.049-7.492-4.746-18.134-2.239c-4.651,1.096-9.185,3.342-13.58,6.721c-0.066,0.086-0.158,0.16-0.262,0.201
				c-6.424,5.007-12.553,12.437-18.326,22.232C63.79,339.937,63.583,340.048,63.372,340.048z"/>
		</g>
		<g>
			<path fill="#FFFFFF" d="M72.399,251.484c-0.1-1.447,0.991-2.699,2.439-2.797c1.445-0.101,2.7,0.989,2.797,2.435l0.43,5.958
				c0.097,1.444-0.992,2.7-2.44,2.797c-1.445,0.097-2.699-0.995-2.797-2.439L72.399,251.484L72.399,251.484z M65.406,260.27
				c0.986,1.058,0.927,2.72-0.135,3.705c-1.058,0.985-2.717,0.926-3.705-0.132l-10.87-11.749c-0.988-1.062-0.931-2.72,0.131-3.708
				c1.059-0.982,2.719-0.922,3.708,0.135L65.406,260.27L65.406,260.27L65.406,260.27z M56.159,272.338
				c1.426,0.251,2.38,1.614,2.128,3.036c-0.251,1.427-1.609,2.381-3.038,2.127l-6.562-1.13c-1.426-0.251-2.381-1.612-2.13-3.038
				c0.253-1.427,1.611-2.38,3.039-2.13L56.159,272.338L56.159,272.338z"/>
		</g>
		<g>
			<path fill="#FFFFFF" d="M358.942,230.682c0.1-1.444-0.989-2.7-2.438-2.797c-1.445-0.1-2.7,0.992-2.797,2.438l-0.428,5.957
				c-0.1,1.446,0.99,2.701,2.439,2.798c1.443,0.097,2.699-0.993,2.796-2.439L358.942,230.682L358.942,230.682z M365.935,239.471
				c-0.986,1.057-0.926,2.719,0.135,3.705c1.061,0.985,2.72,0.926,3.705-0.135l10.871-11.745c0.989-1.063,0.93-2.722-0.13-3.709
				c-1.061-0.984-2.72-0.926-3.711,0.135L365.935,239.471L365.935,239.471L365.935,239.471z M375.182,251.539
				c-1.424,0.25-2.378,1.613-2.127,3.035c0.25,1.427,1.609,2.378,3.038,2.13l6.561-1.131c1.426-0.251,2.382-1.613,2.13-3.039
				c-0.251-1.426-1.611-2.378-3.038-2.128L375.182,251.539L375.182,251.539z"/>
		</g>
		<g>
			<path fill="#59B2FF" d="M305.031,137.193c0,0,5.098-6.259,8.729-6.036c3.628,0.223,8.434,8.293,8.165,14.54
				c-0.267,6.252-6.294,28.15-18.503,20.377C291.212,158.302,305.031,137.193,305.031,137.193z"/>
		</g>
		<g>
			<path fill="#2C81FE" d="M301.205,143.91c-0.395,0.442-0.488,1.178-0.204,1.64c0.257,0.418,0.728,0.473,1.109,0.157l0,0
				c0,0,3.942,19.057,6.5,15.967c2.558-3.092,5.255-6.076,6.196-10.981s-3.294-9.217-1.873-10.543
				c1.353-1.263,2.925,0.573,3.069,0.749l0.007,0.007l0.004,0.004l0.001,0.001c1.243,1.601,1.862,3.513,1.867,3.523
				c0.185,0.551,0.701,0.738,1.151,0.411c0.451-0.324,0.665-1.036,0.48-1.589c-0.007-0.02-2.339-7.224-7.352-6.797
				C307.37,136.871,301.223,143.889,301.205,143.91z"/>
		</g>
		<g>
			<path fill="#59B2FF" d="M186.221,141.92c0,0-5.578-5.836-9.179-5.325c-3.6,0.511-7.751,8.936-6.986,15.145
				c0.765,6.21,8.513,27.558,20.064,18.842C201.673,161.861,186.221,141.92,186.221,141.92z"/>
		</g>
		<g>
			<path fill="#2C81FE" d="M190.57,148.313c0.43,0.409,0.578,1.135,0.333,1.619c-0.222,0.435-0.688,0.527-1.092,0.243l0,0
				c0,0-2.416,19.311-5.212,16.433c-2.794-2.88-5.721-5.64-7.048-10.455c-1.327-4.815,2.551-9.451,1.03-10.658
				c-1.449-1.153-2.87,0.804-3.001,0.988l-0.005,0.007l-0.003,0.007l0,0c-1.112,1.697-1.581,3.651-1.581,3.662
				c-0.142,0.565-0.642,0.789-1.118,0.5c-0.473-0.288-0.745-0.98-0.603-1.546c0.005-0.02,1.757-7.387,6.789-7.358
				C183.866,141.783,190.549,148.293,190.57,148.313z"/>
		</g>
		<g>
			<path fill="#59B2FF" d="M241.65,36.637c-81.521,4.505-66.835,71.61-57.472,125.816c14.574,84.383,116.931,80.31,124.758-4.962
				C313.963,102.713,323.271,34.654,241.65,36.637z"/>
		</g>
		<g>
			<path fill="#2C81FE" d="M262.891,141.691c2.807-5.894,6.254-9.113,9.763-10.409c2.407-0.891,4.843-0.877,7.12-0.204
				c2.269,0.67,4.38,1.997,6.155,3.738c3.236,3.18,5.352,7.746,5.235,12.226c-0.003,0.132-0.111,0.236-0.243,0.234
				c-0.119-0.004-0.218-0.095-0.23-0.212c-0.357-3.105-2.054-6.144-4.508-8.438c-1.861-1.74-4.159-3.051-6.64-3.635
				c-2.475-0.584-5.138-0.445-7.732,0.704c-3.012,1.337-5.943,4.039-8.402,8.563c-0.591,1.084-1.062,2.242-1.389,3.42l0,0l0,0
				c-0.316,1.144-0.497,2.309-0.513,3.439c0,0.133-0.108,0.236-0.239,0.236c-0.123-0.001-0.223-0.097-0.235-0.219
				c-0.136-1.52-0.028-3.116,0.281-4.69C261.635,144.808,262.177,143.187,262.891,141.691z"/>
		</g>
		<g>
			<path fill="#2C81FE" d="M211.917,133.851c3.494,0.984,7.079,3.832,10.25,9.319c0.805,1.391,1.454,2.917,1.892,4.478
				c0.422,1.499,0.65,3.035,0.635,4.516c-0.003,0.119-0.091,0.219-0.211,0.23c-0.127,0.011-0.24-0.084-0.251-0.208
				c-0.103-1.095-0.366-2.208-0.76-3.289c-0.408-1.116-0.954-2.201-1.608-3.203c-2.731-4.186-5.773-6.577-8.789-7.635
				c-2.601-0.915-5.188-0.842-7.538-0.088c-2.355,0.758-4.478,2.203-6.144,4.03c-2.199,2.409-3.604,5.479-3.709,8.512
				c-0.004,0.114-0.092,0.208-0.208,0.223c-0.127,0.009-0.24-0.08-0.253-0.21c-0.458-4.324,1.236-8.908,4.123-12.232
				c1.582-1.822,3.524-3.268,5.667-4.092C207.165,133.376,209.52,133.176,211.917,133.851z"/>
		</g>
		<g>
			<path fill="#2C81FE" d="M205.784,90.213l6.131,5.486c23.96-3.34,65.913,21.611,86.327,4.938
				c12.499-10.209-9.652-18.356-11.455-18.801C284.984,81.391,205.784,90.213,205.784,90.213z"/>
		</g>
		<g>
			<path fill="#12006C" d="M309.859,151.659c0.696-7.425,1.451-15.694,1.954-23.287c3.37-50.945-1.704-87.891-69.56-86.242
				c-67.775,3.749-70.462,39.735-63.055,90.247c1.104,7.531,2.693,16.965,3.978,24.311l0,0c0,0,4.128-7.4,1.77-23.248
				c0,0,14.134-9.523,10.783-29.734c-4.671-28.17,29.445-30.014,47.751-30.742c18.303-0.728,54.018-0.127,48.153,27.82
				c-5.866,27.945,12.485,33.347,12.485,33.347C303.024,150.118,309.859,151.659,309.859,151.659L309.859,151.659z"/>
		</g>
		<g>
			<path fill="#2C81FE" d="M241.871,142.571c-0.019,0.131-0.059,0.261-0.122,0.386l-0.342,0.685l-0.007,0.014l0,0
				c-1.75,3.508-7.336,14.736-7.263,15.928c0.116,0.854,3.417,3.226,4.134,3.682c1.657,1.051,5.373-0.662,6.708-1.274
				c5.773-2.642-3.39,5.458-5.819,4.928c-1.932-0.42-3.194-1.243-4.697-2.461c-1.266-1.026-3.035-2.948-3.253-4.567
				c-0.224-1.668,5.465-13.499,7.444-17.341c1.846-3.79,1.713-6.178,1.165-7.552c-0.372-0.935-0.459-2.357,0.935-0.636
				C241.917,135.797,243.382,138.589,241.871,142.571z"/>
		</g>
		<g>
			<path fill="#12006C" d="M224.07,121.891c-0.064,0.969-0.304,1.447-0.477,1.672c-0.091-1.313-0.891-2.232-2.138-2.843
				c-8.125-3.359-20.895-0.188-26.672,5.007h0.001c-0.051,0.045-0.077,0.127-0.055,0.201c0.024,0.09,0.107,0.135,0.181,0.101
				c4.272-2,8.612-2.597,12.499-2.48c6.228,0.188,11.287,2.215,13.036,3.253c0.616,0.368,1.355,0.739,2.092,0.736
				c0.758-0.003,1.505-0.399,2.1-1.584c0.197-0.392,0.338-0.774,0.434-1.139c0.226-0.862,0.204-1.628,0.092-2.201
				c-0.116-0.594-0.341-1.001-0.488-1.109c-0.02-0.014-0.039-0.024-0.058-0.031l-0.003-0.001l-0.004-0.001h-0.001
				c-0.43-0.149-0.536,0.389-0.536,0.389l0,0L224.07,121.891z"/>
		</g>
		<g>
			<path fill="#12006C" d="M262.931,142.668c2.807-5.893,6.255-9.112,9.763-10.409c2.408-0.89,4.843-0.877,7.12-0.203
				c2.269,0.672,4.381,1.999,6.155,3.738c3.236,3.178,5.352,7.747,5.236,12.225c-0.004,0.132-0.112,0.236-0.245,0.235
				c-0.119-0.001-0.218-0.096-0.23-0.211c-0.357-3.107-2.053-6.143-4.508-8.439c-1.861-1.738-4.159-3.048-6.64-3.632
				c-2.475-0.586-5.138-0.449-7.732,0.703c-3.011,1.335-5.942,4.038-8.404,8.563c-0.589,1.081-1.061,2.241-1.388,3.418v0.003l0,0
				c-0.316,1.142-0.496,2.307-0.513,3.438c0,0.131-0.108,0.235-0.239,0.235c-0.123,0-0.224-0.096-0.235-0.218
				c-0.136-1.519-0.027-3.115,0.281-4.69C261.676,145.785,262.218,144.164,262.931,142.668z"/>
		</g>
		<g>
			<path fill="#12006C" d="M212.079,134.992c3.496,0.984,7.08,3.832,10.25,9.32c0.805,1.393,1.455,2.919,1.894,4.477
				c0.422,1.503,0.647,3.038,0.632,4.519c-0.001,0.117-0.09,0.216-0.211,0.227c-0.127,0.011-0.239-0.081-0.249-0.208
				c-0.104-1.092-0.368-2.207-0.763-3.288c-0.407-1.115-0.953-2.201-1.607-3.201c-2.73-4.189-5.773-6.578-8.79-7.637
				c-2.6-0.914-5.185-0.842-7.534-0.084c-2.357,0.755-4.478,2.2-6.146,4.026c-2.198,2.409-3.604,5.48-3.709,8.512
				c-0.005,0.115-0.093,0.211-0.21,0.223c-0.127,0.014-0.239-0.08-0.254-0.207c-0.457-4.326,1.238-8.908,4.126-12.232
				c1.582-1.822,3.524-3.27,5.666-4.094C207.327,134.519,209.681,134.317,212.079,134.992z"/>
		</g>
		<g>
			<path fill="#12006C" d="M265.796,140.437c0.465-0.835,0.95-1.6,1.446-2.313c2-1.665,4.623-2.726,7.527-2.84
				c6.559-0.261,12.068,4.39,12.308,10.389c0.397,9.981-12.537,13.086-19.484,8.87c-1.284-0.97-2.339-2.189-3.081-3.578
				C263.222,147.815,263.938,143.764,265.796,140.437z"/>
		</g>
		<g>
			<path fill="#12006C" d="M219.352,142.791c-0.514-0.774-1.042-1.476-1.577-2.127c-2.064-1.459-4.684-2.282-7.502-2.172
				c-6.365,0.254-11.337,5.181-11.105,11.001c0.384,9.69,13.139,11.697,19.534,7.084c1.167-1.041,2.095-2.299,2.705-3.7
				C222.413,149.73,221.406,145.867,219.352,142.791z"/>
		</g>
		<g>
			<g>
				<g>
					<path fill="#BFE1FF" d="M290.807,152.695c-0.049,0-0.097-0.005-0.146-0.018c-1.03-0.249-1.589-0.773-1.65-0.831
						c-0.245-0.238-0.25-0.63-0.011-0.873c0.235-0.242,0.623-0.249,0.867-0.015c0.008,0.008,0.385,0.351,1.082,0.522
						c0.331,0.08,0.535,0.413,0.455,0.743C291.337,152.504,291.084,152.695,290.807,152.695z"/>
				</g>
				<g>
					<path fill="#BFE1FF" d="M288.114,154.956c-0.12,0-0.242-0.034-0.347-0.107c-0.726-0.497-1.009-1.074-1.039-1.14
						c-0.143-0.309-0.009-0.674,0.299-0.819c0.308-0.14,0.67-0.012,0.816,0.292c0.008,0.015,0.185,0.35,0.622,0.653
						c0.281,0.191,0.353,0.574,0.159,0.854C288.505,154.862,288.311,154.956,288.114,154.956z"/>
				</g>
			</g>
			<g>
				<g>
					<path fill="#BFE1FF" d="M194.982,156.507c-0.259,0-0.5-0.168-0.586-0.427c-0.105-0.324,0.072-0.672,0.395-0.776
						c0.686-0.227,1.035-0.601,1.039-0.605c0.226-0.251,0.616-0.273,0.868-0.046c0.251,0.223,0.278,0.608,0.057,0.862
						c-0.057,0.064-0.572,0.63-1.58,0.961C195.11,156.496,195.045,156.507,194.982,156.507z"/>
				</g>
				<g>
					<path fill="#BFE1FF" d="M197.844,158.547c-0.178,0-0.357-0.078-0.48-0.228c-0.214-0.265-0.173-0.65,0.092-0.866
						c0.42-0.341,0.566-0.695,0.567-0.699c0.127-0.314,0.48-0.473,0.796-0.35c0.315,0.124,0.474,0.472,0.357,0.786
						c-0.024,0.065-0.261,0.665-0.945,1.219C198.118,158.503,197.98,158.547,197.844,158.547z"/>
				</g>
			</g>
		</g>
		<g>
			<path fill="#FFFFFF" d="M271.608,147.401c1.138-0.155,2.185,0.665,2.339,1.83c0.155,1.167-0.643,2.239-1.781,2.397
				c-1.136,0.154-2.184-0.663-2.339-1.831C269.673,148.629,270.47,147.557,271.608,147.401z"/>
		</g>
		<g>
			<path fill="#FFFFFF" d="M207.551,150.711c1.104-0.153,2.12,0.643,2.269,1.777c0.15,1.131-0.623,2.173-1.727,2.324
				s-2.12-0.646-2.27-1.777S206.447,150.861,207.551,150.711z"/>
		</g>
		<g>
			<path fill="#2C81FE" d="M251.36,202.6c0.986-0.165,1.65-1.07,1.482-2.019c-0.17-0.947-1.108-1.581-2.096-1.416
				c-0.014,0.001-5.47,1.695-12.17,0.815c-2.37-0.307-2.636,2.272-0.27,2.577C245.536,203.506,251.344,202.601,251.36,202.6z"/>
		</g>
		<g>
			<path fill="#12006C" d="M195.311,99.612c-4.924-0.773-7.76-2.55-11.214-4.309c-33.132-16.902-2.754-73.493,10.858-57.073
				c0.153,0.187,0.38,0.826,0.453,0.585c11.231-36.92,73.114-38.482,55.948-15.409c0,0,44.998-13.209,47.512,19.186
				c9.156-23.717,37.801,53.581-7.234,58.193C253.986,104.638,228.98,88.248,195.311,99.612z"/>
		</g>
		<g>
			<g>
				<path fill="#12006C" d="M258.779,115.938c0.082,0.996,0.339,1.481,0.522,1.705c0.068-1.362,0.874-2.34,2.146-3.024
					c8.294-3.793,21.483-1.042,27.518,4.079l0,0c0.053,0.045,0.081,0.13,0.059,0.208c-0.023,0.093-0.107,0.143-0.185,0.112
					c-4.428-1.889-8.904-2.33-12.898-2.049c-6.401,0.449-11.564,2.742-13.345,3.884c-0.627,0.403-1.378,0.82-2.136,0.846
					c-0.78,0.027-1.555-0.349-2.188-1.549c-0.211-0.396-0.363-0.785-0.468-1.157c-0.249-0.881-0.239-1.672-0.135-2.268
					c0.108-0.619,0.333-1.047,0.483-1.165c0.019-0.013,0.039-0.027,0.058-0.035h0.003l0.004-0.003h0.001
					c0.439-0.17,0.557,0.378,0.558,0.381h-0.001L258.779,115.938z"/>
			</g>
			<g>
				<path fill="#59B2FF" d="M283.109,111.531c0.481-0.366,1.139-0.22,1.469,0.322c0.331,0.544,0.208,1.284-0.273,1.649l-8.798,6.7
					c-0.48,0.369-1.138,0.223-1.469-0.319c-0.33-0.546-0.208-1.284,0.273-1.649L283.109,111.531z"/>
			</g>
		</g>
		<g>
			<circle fill="#12006C" cx="312.934" cy="161.822" r="1.55"/>
		</g>
		<g>
			<path fill="#2C81FE" d="M180.334,40.139c1.665,11.964,10.855,30.599,54.894,13.745l1.135-0.438
				c0.826-0.318,1.271-0.499,1.274-0.201v0.004v0.007c-0.005,0.099-0.086,0.178-0.185,0.18l0,0
				c-0.246,0.157-0.732,0.389-1.488,0.746l-0.586,0.281c-3.366,1.603-9.974,4.592-17.418,7.132c-4.8,1.64-9.951,3.089-14.802,3.858
				c-5.94,0.942-10.825,0.703-14.806-0.108c-3.982-0.809-7.059-2.186-9.386-3.519c-0.458-0.264-0.796-0.458-1.136-0.655V61.17v0.001
				c-3.003-1.74-4.803-2.781-7.182-2.554C172.591,51.187,176.231,44.446,180.334,40.139L180.334,40.139z M242.147,51.145
				c0.046-0.024,15.883-9.336,26.053-6.644c0.1,0.024,0.159,0.128,0.134,0.23c-0.024,0.095-0.12,0.153-0.214,0.136v0.001
				c-0.011-0.003-4.038-0.643-6.331,1.953c-1.97,2.227-3.967,2.154-6.609,2.061c-0.619-0.022-1.274-0.046-1.955-0.041
				c-1.861,0.012-3.802,0.238-5.716,0.701c-1.777,0.428-3.527,1.064-5.162,1.926l-0.01,0.004l0,0l-0.008,0.003
				c-0.091,0.05-0.207,0.015-0.254-0.077c-0.047-0.089-0.015-0.2,0.072-0.251L242.147,51.145L242.147,51.145z"/>
		</g>
		<g>
			<g>
				<path fill="#12006C" d="M224.24,172.44c4.67,1.48,11.954,1.528,19.161,0.518c7.22-1.009,14.272-3.065,18.469-5.786
					c0.835-0.54,1.951-0.303,2.491,0.531c0.245,0.38,0.328,0.812,0.273,1.226h0.001c-1.514,10.697-5.001,18.391-9.456,22.915
					c-2.755,2.797-5.896,4.416-9.202,4.823c-3.309,0.407-6.729-0.409-10.031-2.477c-5.197-3.257-10.152-9.678-13.925-19.376
					c-0.361-0.924,0.097-1.969,1.023-2.33c0.399-0.154,0.818-0.158,1.195-0.038L224.24,172.44z"/>
			</g>
			<g>
				<path fill="#FFFFFF" d="M225.441,172.777c4.663,1.143,11.343,1.108,17.96,0.181c7.22-1.009,14.272-3.065,18.469-5.786
					c0.835-0.543,1.951-0.303,2.491,0.531c0.245,0.38,0.328,0.812,0.273,1.226h0.001c-0.123,0.868-0.259,1.713-0.407,2.541
					c-12.425,8.529-31.67,8.116-35.324,6.44C226.511,176.813,225.706,174.437,225.441,172.777z"/>
			</g>
			<g>
				<path fill="#2C81FE" d="M231.049,190.073c2.958-2.082,7.698-3.762,14.682-1.842c0,0,7.01-8.7,16.386-8.436
					c-1.781,5.209-4.173,9.239-6.938,12.048c-2.755,2.797-5.896,4.416-9.202,4.823c-3.309,0.407-6.729-0.409-10.031-2.475
					C234.28,193.143,232.635,191.773,231.049,190.073z"/>
			</g>
		</g>
		<g>
			<path fill="#12006C" d="M243.604,193.622c-0.03,0-0.058-0.001-0.088-0.005c-0.337-0.049-0.57-0.359-0.523-0.697
				c0.678-4.816,2.911-6.9,3.005-6.986c0.25-0.23,0.638-0.212,0.868,0.038c0.23,0.251,0.214,0.641-0.035,0.87
				c-0.019,0.02-2.005,1.909-2.619,6.251C244.17,193.401,243.906,193.622,243.604,193.622z"/>
		</g>
		<g>
			<g>
				<path fill="#FF75CA" d="M217.612,411.18c40.548,0,73.621-33.069,73.621-73.621c0-40.548-33.073-73.621-73.621-73.621
					c-40.55,0-73.621,33.073-73.621,73.621C143.99,378.111,177.062,411.18,217.612,411.18z"/>
			</g>
			<g>
				<path fill="#2C81FE" d="M217.612,393.129c30.608,0,55.571-24.961,55.571-55.571c0-30.604-24.963-55.568-55.571-55.568
					c-30.605,0-55.569,24.964-55.569,55.568C162.042,368.168,187.006,393.129,217.612,393.129z"/>
				<path fill="#12006C" d="M217.612,393.745c-30.982,0-56.187-25.206-56.187-56.187c0-30.98,25.204-56.185,56.187-56.185
					c30.981,0,56.187,25.206,56.187,56.185C273.798,368.54,248.593,393.745,217.612,393.745z M217.612,282.606
					c-30.301,0-54.953,24.653-54.953,54.953c0,30.301,24.652,54.953,54.953,54.953c30.303,0,54.953-24.652,54.953-54.953
					C272.565,307.259,247.914,282.606,217.612,282.606z"/>
			</g>
			<g>
				<path fill="#FFFFFF" d="M150.238,338.178c-0.342,0-0.616-0.274-0.616-0.615c0-1.75,0.066-3.526,0.197-5.282
					c0.026-0.338,0.328-0.584,0.661-0.566c0.339,0.024,0.595,0.32,0.569,0.661c-0.13,1.724-0.195,3.47-0.195,5.188
					C150.854,337.903,150.578,338.178,150.238,338.178z M151.023,327.767c-0.031,0-0.062-0.003-0.093-0.007
					c-0.338-0.051-0.568-0.365-0.516-0.701c5.055-33.247,33.316-57.425,67.197-57.488h0.001c0.339,0,0.615,0.274,0.618,0.615
					c0,0.339-0.276,0.616-0.616,0.618c-33.269,0.064-61.016,23.8-65.982,56.439C151.585,327.548,151.323,327.767,151.023,327.767z"
					/>
			</g>
			<g>
				<path fill="#E33BA3" d="M217.612,405.55c-0.341,0-0.618-0.274-0.618-0.615c0-0.342,0.277-0.616,0.618-0.616
					c33.439,0,61.899-25.058,66.197-58.285c0.045-0.339,0.353-0.582,0.691-0.532c0.338,0.043,0.576,0.354,0.532,0.69
					C280.654,380.032,251.668,405.55,217.612,405.55z M284.89,341.553c-0.011,0-0.022-0.001-0.032-0.001
					c-0.341-0.019-0.601-0.307-0.582-0.649c0.057-1.109,0.089-2.223,0.095-3.344c0.001-0.341,0.277-0.615,0.618-0.615
					c0.001,0,0.001,0,0.003,0c0.339,0.003,0.615,0.281,0.613,0.62c-0.005,1.142-0.038,2.277-0.099,3.405
					C285.487,341.296,285.215,341.553,284.89,341.553z"/>
			</g>
			<g>
				<g>
					<path fill="#59B2FF" d="M217.563,384.838c-10.931,0-21.876-3.723-30.685-11.258c-0.259-0.219-0.289-0.608-0.068-0.869
						c0.22-0.258,0.61-0.289,0.868-0.068c18.155,15.526,45.626,14.437,62.542-2.474c15.091-15.09,17.894-38.348,6.817-56.553
						c-0.177-0.291-0.085-0.67,0.205-0.846c0.291-0.18,0.67-0.086,0.847,0.205c11.374,18.692,8.497,42.568-6.997,58.065
						C241.932,380.2,229.758,384.838,217.563,384.838z M177.662,362.441c-0.209,0-0.412-0.105-0.528-0.297
						c-11.374-18.691-8.497-42.568,6.997-58.061c17.367-17.368,45.574-18.484,64.216-2.542c0.258,0.22,0.289,0.611,0.068,0.869
						c-0.22,0.258-0.611,0.289-0.869,0.068c-18.157-15.526-45.629-14.439-62.542,2.474c-15.091,15.094-17.894,38.347-6.816,56.553
						c0.178,0.291,0.085,0.67-0.207,0.846C177.88,362.412,177.771,362.441,177.662,362.441z"/>
				</g>
				<g>
					<path fill="#59B2FF" d="M250.656,308.825c-1.151,0-2.234-0.449-3.047-1.262c-1.681-1.678-1.681-4.412-0.001-6.093
						c1.63-1.628,4.467-1.628,6.096,0c0.813,0.813,1.262,1.897,1.262,3.047c0,1.151-0.449,2.232-1.262,3.046
						C252.89,308.376,251.807,308.825,250.656,308.825z M250.656,301.44c-0.823,0-1.595,0.32-2.176,0.901
						c-1.2,1.199-1.2,3.15,0,4.348c1.162,1.164,3.188,1.164,4.351,0c0.58-0.58,0.901-1.351,0.901-2.173s-0.322-1.596-0.903-2.176
						C252.249,301.76,251.478,301.44,250.656,301.44z"/>
				</g>
				<g>
					<path fill="#59B2FF" d="M184.566,374.915c-1.15,0-2.231-0.449-3.046-1.262c-1.678-1.681-1.678-4.416,0-6.096
						c0.815-0.813,1.896-1.262,3.046-1.262l0,0c1.153,0,2.235,0.449,3.048,1.262c1.68,1.68,1.68,4.415,0,6.096
						C186.801,374.467,185.718,374.915,184.566,374.915z M184.566,367.53c-0.82,0-1.592,0.319-2.173,0.9
						c-1.199,1.2-1.199,3.151,0,4.35c1.161,1.164,3.186,1.161,4.35,0c1.199-1.199,1.199-3.15,0-4.35
						C186.16,367.849,185.39,367.53,184.566,367.53z"/>
				</g>
			</g>
			<g>
				<g>
					<path fill="#FFFFFF" d="M194.813,306.486h24.802c4.923,0,8.575,0.201,10.985,0.604c2.427,0.422,4.578,1.273,6.482,2.557
						c1.905,1.3,3.493,3.017,4.766,5.17c1.27,2.15,1.905,4.575,1.905,7.246c0,2.886-0.78,5.556-2.339,7.97
						c-1.559,2.423-3.682,4.227-6.353,5.44c3.767,1.113,6.655,2.99,8.692,5.647c2.02,2.657,3.03,5.775,3.03,9.367
						c0,2.83-0.649,5.571-1.962,8.244c-1.313,2.67-3.104,4.808-5.386,6.409c-2.265,1.588-5.066,2.568-8.4,2.945
						c-2.078,0.216-7.119,0.362-15.101,0.419h-21.121V306.486L194.813,306.486z M207.372,316.795v14.29h8.201
						c4.865,0,7.896-0.073,9.079-0.215c2.138-0.247,3.825-0.982,5.053-2.211c1.228-1.226,1.832-2.83,1.832-4.82
						c0-1.922-0.532-3.466-1.586-4.663c-1.054-1.199-2.627-1.922-4.707-2.166c-1.241-0.146-4.807-0.215-10.682-0.215
						L207.372,316.795L207.372,316.795z M207.372,341.391v16.632h11.608c4.504,0,7.378-0.131,8.589-0.376
						c1.862-0.346,3.378-1.17,4.547-2.482c1.17-1.331,1.762-3.076,1.762-5.284c0-1.877-0.447-3.453-1.357-4.75
						c-0.896-1.3-2.209-2.253-3.912-2.843c-1.704-0.592-5.415-0.897-11.117-0.897H207.372z"/>
				</g>
				<g>
					<rect x="204.232" y="300.803" fill="#FFFFFF" width="6.279" height="11.363"/>
				</g>
				<g>
					<rect x="216.791" y="300.803" fill="#FFFFFF" width="6.279" height="11.363"/>
				</g>
				<g>
					<rect x="204.232" y="362.806" fill="#FFFFFF" width="6.279" height="11.362"/>
				</g>
				<g>
					<rect x="216.791" y="362.806" fill="#FFFFFF" width="6.279" height="11.362"/>
				</g>
			</g>
		</g>
		<g>
			<path fill="#FFFFFF" d="M389.989,393.22c-0.236,0-0.462-0.138-0.565-0.368c-0.138-0.309,0.001-0.674,0.312-0.813
				c12.394-5.535,8.683-29.399,8.644-29.641c-0.013-0.086-0.011-0.176,0.014-0.261c0,0,3.963-14.384,5.424-19.725
				c0.627-2.284-0.243-4.777-2.216-6.346c-2.162-1.717-5.054-1.881-7.734-0.431c-6.189,3.344-9.29,6.686-9.321,6.72
				c-0.155,0.168-0.391,0.238-0.611,0.178c-0.223-0.059-0.393-0.236-0.445-0.459c-0.111-0.482-11.113-48.536-14.233-59.007
				c-1.18-3.958-3.971-6.15-7.274-5.697c-3.73,0.499-7.586,4.392-7.736,10.863c-0.005,0.284-0.207,0.527-0.485,0.589
				c-0.278,0.058-0.562-0.081-0.686-0.338l-16.866-35.239c-0.366-0.362-2.294-2.159-4.49-2.07c-1.254,0.047-2.407,0.715-3.43,1.978
				c-3.42,4.238-0.84,14.817,1.435,24.149c0.293,1.208,0.581,2.396,0.851,3.545c2.368,10.063,5.094,20.683,5.121,20.787
				c0.073,0.289-0.068,0.588-0.335,0.713c-0.27,0.126-0.589,0.043-0.762-0.196l-33.99-47.094c-0.016-0.022-1.674-2.264-3.97-2.455
				c-1.284-0.103-2.563,0.449-3.801,1.655c-0.243,0.239-0.634,0.236-0.87-0.009c-0.239-0.245-0.234-0.634,0.009-0.87
				c1.507-1.474,3.112-2.154,4.774-2.005c2.862,0.246,4.777,2.851,4.857,2.962l32.097,44.468c-0.992-3.917-2.742-10.92-4.328-17.672
				c-0.27-1.147-0.559-2.331-0.853-3.536c-2.342-9.61-4.998-20.503-1.193-25.214c1.255-1.558,2.72-2.378,4.347-2.438
				c2.992-0.138,5.39,2.413,5.492,2.52c0.043,0.046,0.078,0.099,0.105,0.157l15.944,33.309c0.931-5.8,4.82-9.275,8.6-9.781
				c3.099-0.416,6.988,1.092,8.619,6.567c2.869,9.625,12.349,50.787,14.006,58.007c1.311-1.228,4.224-3.679,8.837-6.173
				c3.13-1.686,6.526-1.482,9.085,0.554c2.361,1.873,3.397,4.87,2.639,7.635c-1.378,5.043-4.994,18.16-5.389,19.596
				c0.335,2.184,3.511,25.072-9.379,30.83C390.157,393.202,390.073,393.22,389.989,393.22z M53.02,379.627
				c-0.081,0-0.161-0.016-0.239-0.049c-12.105-5.084-9.655-26.38-9.383-28.477c-0.412-1.37-4.031-13.433-5.416-18.08
				c-0.765-2.566,0.141-5.389,2.307-7.194c2.35-1.951,5.517-2.216,8.477-0.705c4.274,2.188,7.016,4.374,8.287,5.501
				c1.43-6.94,9.328-45.128,11.782-54.096c1.408-5.144,5.016-6.636,7.914-6.312c3.508,0.389,7.178,3.497,8.205,8.804l14.053-31.147
				c0.027-0.057,0.062-0.111,0.104-0.157c0.092-0.104,2.294-2.53,5.081-2.471c1.526,0.024,2.912,0.758,4.121,2.19
				c3.644,4.311,1.405,14.491-0.572,23.476c-0.247,1.127-0.489,2.232-0.716,3.307c-1.308,6.178-2.755,12.586-3.6,16.283
				l28.75-41.786c0.073-0.104,1.807-2.58,4.481-2.872c1.55-0.168,3.067,0.427,4.509,1.773c0.249,0.232,0.262,0.622,0.031,0.873
				c-0.234,0.246-0.624,0.259-0.872,0.03c-1.166-1.089-2.355-1.574-3.53-1.451c-2.108,0.224-3.59,2.327-3.605,2.35l-30.585,44.448
				c-0.168,0.245-0.485,0.335-0.755,0.215c-0.272-0.12-0.419-0.416-0.353-0.704c0.023-0.1,2.334-10.021,4.322-19.414
				c0.227-1.076,0.472-2.185,0.719-3.315c1.915-8.705,4.085-18.571,0.834-22.418c-0.966-1.143-2.04-1.734-3.192-1.751
				c-1.981-0.007-3.749,1.646-4.09,1.996l-14.925,33.077c-0.116,0.261-0.399,0.407-0.678,0.351c-0.28-0.053-0.487-0.293-0.5-0.577
				c-0.273-5.981-3.915-9.5-7.373-9.883c-3.057-0.336-5.583,1.732-6.589,5.411c-2.68,9.79-11.894,54.652-11.987,55.103
				c-0.047,0.223-0.214,0.404-0.432,0.466c-0.218,0.066-0.458,0-0.616-0.165c-0.028-0.03-2.974-3.065-8.786-6.035
				c-2.504-1.282-5.169-1.074-7.127,0.557c-1.785,1.485-2.536,3.801-1.911,5.893c1.467,4.93,5.451,18.206,5.451,18.206
				c0.026,0.084,0.032,0.174,0.02,0.261c-0.031,0.226-2.969,22.437,8.621,27.304c0.314,0.132,0.462,0.495,0.33,0.807
				C53.488,379.484,53.259,379.627,53.02,379.627z M237.799,223.538c-0.033,0-0.065-0.001-0.099-0.01
				c-19.641-3.143-42.509-18.082-51.725-50.374c-2.126,0.358-4.215-0.181-6.223-1.589c-6.142-4.316-9.812-15.722-10.308-19.749
				c-0.785-6.377,3.427-15.253,7.511-15.833c0.647-0.092,1.378-0.011,2.177,0.232c-2.374-15.675-3.894-31.208-2.473-45.447
				c-7.897-7.747-8.5-18.188-7.971-24.483c1.176-13.987,9.581-28.573,17.988-31.215c3.354-1.054,6.38-0.096,8.751,2.765
				c0.218,0.263,0.181,0.651-0.081,0.867c-0.262,0.218-0.651,0.181-0.868-0.08c-2.055-2.478-4.556-3.278-7.432-2.374
				c-7.989,2.507-15.994,16.591-17.129,30.142c-0.632,7.513,0.408,21.194,14.46,28.361c0.303,0.153,0.423,0.526,0.269,0.827
				c-0.156,0.305-0.527,0.424-0.83,0.27c-2.335-1.19-4.325-2.553-6.019-4.028c-1.819,20.103,2.154,42.836,5.996,64.835l0.992,5.692
				c6.74,39.025,31.854,56.562,53.11,59.964c0.335,0.051,0.565,0.368,0.511,0.705C238.358,223.32,238.096,223.538,237.799,223.538z
				 M177.504,137.178c-0.131,0-0.257,0.011-0.376,0.028c-3.124,0.442-7.204,8.415-6.459,14.458c0.476,3.87,3.97,14.801,9.792,18.891
				c1.689,1.188,3.427,1.657,5.182,1.404c-0.809-2.988-1.505-6.12-2.073-9.401l-0.989-5.689c-1.116-6.388-2.243-12.837-3.236-19.269
				C178.652,137.321,178.036,137.178,177.504,137.178z"/>
		</g>
		<g>
			<path fill="#FFFFFF" d="M217.612,418.905c-20.445,0-39.99-7.614-55.034-21.442c-0.25-0.228-0.267-0.619-0.036-0.869
				c0.231-0.254,0.62-0.268,0.871-0.038c14.814,13.618,34.063,21.118,54.199,21.118c22.09,0,42.662-8.8,57.929-24.776
				c0.234-0.247,0.624-0.254,0.87-0.019c0.246,0.234,0.255,0.626,0.019,0.87C260.93,409.973,240.042,418.905,217.612,418.905z
				 M139.162,319.058c-0.049,0-0.097-0.007-0.147-0.018c-0.331-0.08-0.534-0.413-0.453-0.743
				c7.346-30.25,31.768-53.935,62.222-60.339c0.335-0.074,0.662,0.142,0.731,0.476c0.07,0.334-0.145,0.661-0.477,0.731
				c-29.991,6.308-54.044,29.634-61.278,59.42C139.692,318.869,139.438,319.058,139.162,319.058z"/>
		</g>
	</g>
	<g>
		<g>
			<path fill="#59B2FF" d="M352.675,74.792h80.58c2.397,0,4.581,0.984,6.164,2.566l0.003,0.004h0.001l0.009,0.008
				c1.578,1.584,2.557,3.765,2.557,6.159v31.318c0,2.404-0.982,4.589-2.566,6.171c-1.582,1.582-3.766,2.566-6.169,2.566h-80.58
				c-2.401,0-4.584-0.984-6.167-2.566l-0.005-0.004c-1.581-1.581-2.562-3.765-2.562-6.167V83.529c0-2.405,0.981-4.589,2.562-6.171
				C348.086,75.775,350.271,74.792,352.675,74.792z"/>
		</g>
		<g>
			<path fill="#59B2FF" d="M345.17,69.336h80.578c4.127,0,7.504,3.377,7.504,7.504v31.318c0,4.128-3.377,7.504-7.504,7.504H345.17
				c-4.127,0-7.504-3.375-7.504-7.504V76.84C337.666,72.713,341.043,69.336,345.17,69.336z"/>
		</g>
		<g>
			<path fill="#FFFFFF" d="M365.771,92.023c1.296-0.67,2.031-1.838,2.031-3.285c0-2.334-1.945-3.957-5.923-3.957h-7.738v15.13h8.17
				c4.063,0,6.224-1.532,6.224-4.149C368.536,93.926,367.478,92.629,365.771,92.023L365.771,92.023z M361.318,87.872
				c1.426,0,2.162,0.497,2.162,1.45c0,0.97-0.736,1.471-2.162,1.471h-2.939v-2.921H361.318L361.318,87.872z M361.966,96.822h-3.588
				v-3.07h3.588c1.47,0,2.249,0.497,2.249,1.536C364.215,96.324,363.436,96.822,361.966,96.822L361.966,96.822z M377.747,100.215
				c4.473,0,7.111-2.527,7.111-7.047v-8.386h-4.215v8.258c0,2.593-1.081,3.631-2.853,3.631c-1.796,0-2.876-1.038-2.876-3.631v-8.258
				h-4.28v8.386C370.635,97.688,373.271,100.215,377.747,100.215L377.747,100.215z M401.437,84.782h-4.151l-3.588,6.012
				l-3.588-6.012h-4.519l5.771,9.642v5.489h4.281v-5.424L401.437,84.782z"/>
		</g>
		<g>
			<g>
				<polygon fill="#FFFFFF" points="432.642,113.703 448.403,108.782 418.107,99.169 427.719,129.468 				"/>
				<path fill="#FFFFFF" d="M427.719,131.316c-0.804,0-1.519-0.522-1.763-1.292l-9.613-30.296c-0.208-0.659-0.032-1.378,0.455-1.867
					c0.491-0.488,1.209-0.663,1.869-0.454l30.296,9.613c0.77,0.243,1.292,0.959,1.29,1.766c-0.001,0.808-0.528,1.523-1.298,1.763
					l-14.836,4.631l-4.634,14.836c-0.241,0.772-0.954,1.297-1.762,1.3C427.723,131.316,427.72,131.316,427.719,131.316z
					 M420.95,102.013l6.755,21.292l3.171-10.152c0.18-0.581,0.634-1.034,1.214-1.213l10.152-3.171L420.95,102.013z"/>
			</g>
			<g>
				<path fill="#FFFFFF" d="M410.24,92.534c-0.316,0-0.63-0.119-0.873-0.361l-1.165-1.165c-0.481-0.482-0.481-1.262,0-1.746
					c0.484-0.48,1.263-0.48,1.744,0.001l1.166,1.167c0.48,0.484,0.48,1.262,0,1.746C410.869,92.417,410.555,92.534,410.24,92.534z"
					/>
			</g>
			<g>
				<path fill="#FFFFFF" d="M406.983,100.403h-1.649c-0.681,0-1.235-0.553-1.235-1.234s0.554-1.232,1.235-1.232h1.649
					c0.681,0,1.232,0.551,1.232,1.232S407.664,100.403,406.983,100.403z"/>
			</g>
			<g>
				<path fill="#FFFFFF" d="M409.075,109.435c-0.316,0-0.63-0.12-0.873-0.361c-0.481-0.481-0.481-1.262,0-1.745l1.165-1.165
					c0.484-0.484,1.262-0.484,1.746-0.001c0.48,0.481,0.48,1.262,0,1.743l-1.166,1.168
					C409.707,109.314,409.39,109.435,409.075,109.435z"/>
			</g>
			<g>
				<path fill="#FFFFFF" d="M418.107,89.277c-0.681,0-1.232-0.55-1.232-1.231v-1.65c0-0.681,0.551-1.232,1.232-1.232
					c0.68,0,1.232,0.551,1.232,1.232v1.65C419.339,88.728,418.787,89.277,418.107,89.277z"/>
			</g>
			<g>
				<path fill="#FFFFFF" d="M425.974,92.534c-0.317,0-0.634-0.118-0.873-0.361c-0.482-0.48-0.482-1.258,0-1.742l1.166-1.167
					c0.481-0.481,1.262-0.481,1.743,0c0.482,0.482,0.482,1.262,0,1.744l-1.166,1.165C426.603,92.417,426.291,92.534,425.974,92.534z
					"/>
			</g>
		</g>
		<g>
			<path fill="#FFFFFF" d="M412.955,116.894H345.17c-4.817,0-8.738-3.917-8.738-8.736V76.84c0-4.816,3.92-8.736,8.738-8.736h80.578
				c4.817,0,8.737,3.92,8.737,8.736v31.318c0,0.681-0.553,1.234-1.234,1.234c-0.682,0-1.232-0.553-1.232-1.234V76.84
				c0-3.458-2.812-6.27-6.271-6.27H345.17c-3.458,0-6.27,2.812-6.27,6.27v31.318c0,3.459,2.812,6.271,6.27,6.271h67.785
				c0.681,0,1.232,0.551,1.232,1.232C414.187,116.344,413.636,116.894,412.955,116.894z"/>
		</g>
	</g>
	<g>
		<g>
			<g>
				<polygon fill="#FFFFFF" points="166,131.136 159.519,131.136 162.76,125.908 				"/>
				<path fill="#FFFFFF" d="M166.022,131.581c-0.007,0-0.015,0-0.022,0h-6.481c-0.162,0-0.31-0.088-0.389-0.228
					c-0.078-0.141-0.074-0.314,0.011-0.452l3.241-5.227c0.163-0.262,0.594-0.262,0.756,0l3.18,5.129
					c0.092,0.08,0.15,0.201,0.15,0.333C166.468,131.382,166.268,131.581,166.022,131.581z M160.317,130.69h4.885l-2.442-3.939
					L160.317,130.69z"/>
			</g>
			<g>
				<path fill="#59B2FF" d="M165.706,140.094L165.706,140.094c-0.154,0-0.296-0.08-0.378-0.21l-3.24-5.229
					c-0.085-0.136-0.089-0.31-0.011-0.45c0.078-0.141,0.227-0.229,0.388-0.229h6.482c0.162,0,0.311,0.088,0.389,0.229
					c0.078,0.14,0.075,0.314-0.011,0.45l-3.241,5.229C166.002,140.014,165.859,140.094,165.706,140.094z M163.263,134.865
					l2.442,3.939l2.442-3.939H163.263z"/>
			</g>
		</g>
		<g>
			<g>
				<polygon fill="#FFFFFF" points="328.297,198.627 321.815,198.627 325.056,203.856 				"/>
				<path fill="#FFFFFF" d="M325.056,204.301c-0.154,0-0.297-0.081-0.378-0.21l-3.24-5.23c-0.086-0.136-0.089-0.309-0.011-0.45
					c0.079-0.141,0.226-0.229,0.389-0.229h6.481c0.162,0,0.31,0.088,0.389,0.229c0.078,0.141,0.074,0.314-0.011,0.45l-3.241,5.23
					C325.353,204.221,325.209,204.301,325.056,204.301z M322.615,199.073l2.441,3.939l2.441-3.939H322.615z"/>
			</g>
			<g>
				<path fill="#59B2FF" d="M331.265,195.787c-0.008,0-0.016,0-0.022,0h-6.482c-0.162,0-0.31-0.088-0.388-0.228
					s-0.075-0.314,0.011-0.451l3.241-5.229c0.162-0.261,0.594-0.261,0.756,0l3.178,5.13c0.093,0.081,0.151,0.2,0.151,0.333
					C331.71,195.59,331.51,195.787,331.265,195.787z M325.56,194.897h4.883l-2.44-3.939L325.56,194.897z"/>
			</g>
		</g>
		<g>
			<g>
				<polygon fill="#FFFFFF" points="335.94,388.093 329.458,388.093 332.7,382.863 				"/>
				<path fill="#FFFFFF" d="M335.963,388.536c-0.008,0.002-0.015,0.002-0.022,0h-6.482c-0.162,0-0.31-0.088-0.388-0.228
					c-0.079-0.14-0.076-0.313,0.01-0.45l3.241-5.23c0.082-0.13,0.224-0.211,0.378-0.211l0,0c0.154,0,0.296,0.081,0.378,0.211
					l3.179,5.131c0.092,0.08,0.15,0.201,0.15,0.333C336.407,388.338,336.208,388.536,335.963,388.536z M330.257,387.647h4.885
					l-2.442-3.94L330.257,387.647z"/>
			</g>
			<g>
				<path fill="#59B2FF" d="M335.646,397.05c-0.154,0-0.296-0.08-0.379-0.21l-3.241-5.229c-0.085-0.137-0.089-0.31-0.011-0.451
					c0.079-0.14,0.227-0.228,0.389-0.228h6.482c0.161,0,0.31,0.088,0.389,0.228c0.078,0.141,0.074,0.314-0.011,0.451l-3.241,5.229
					C335.942,396.971,335.799,397.05,335.646,397.05z M333.204,391.822l2.442,3.94l2.441-3.94H333.204z"/>
			</g>
		</g>
		<g>
			<g>
				<polygon fill="#FFFFFF" points="151.589,385.711 145.107,385.711 148.348,390.938 				"/>
				<path fill="#FFFFFF" d="M148.348,391.383c-0.154,0-0.296-0.081-0.378-0.21l-3.241-5.229c-0.085-0.136-0.089-0.308-0.01-0.45
					c0.078-0.141,0.226-0.228,0.388-0.228h6.482c0.161,0,0.309,0.087,0.389,0.228c0.078,0.142,0.074,0.312-0.012,0.45l-3.24,5.229
					C148.644,391.302,148.502,391.383,148.348,391.383z M145.906,386.154l2.442,3.939l2.44-3.939H145.906z"/>
			</g>
			<g>
				<path fill="#59B2FF" d="M154.556,382.87c-0.007,0-0.015,0-0.022,0h-6.481c-0.162,0-0.31-0.088-0.389-0.229
					c-0.078-0.14-0.074-0.313,0.011-0.451l3.24-5.226c0.083-0.133,0.225-0.211,0.379-0.211l0,0c0.153,0,0.295,0.078,0.378,0.211
					l3.178,5.128c0.093,0.08,0.15,0.201,0.15,0.333C155.001,382.671,154.802,382.87,154.556,382.87z M148.852,381.979h4.884
					l-2.441-3.938L148.852,381.979z"/>
			</g>
		</g>
	</g>
</g>
</svg>
